Coordinates
version=1
nRows=14
nColumns=24
inDegrees=yes

Units are S.I. units (second, meters, Newtons, ...)
Angles are in degrees.

endheader
time	pelvis_tilt	pelvis_list	pelvis_rotation	pelvis_tx	pelvis_ty	pelvis_tz	hip_flexion_r	hip_adduction_r	hip_rotation_r	knee_angle_r	ankle_angle_r	subtalar_angle_r	mtp_angle_r	hip_flexion_l	hip_adduction_l	hip_rotation_l	knee_angle_l	ankle_angle_l	subtalar_angle_l	mtp_angle_l	lumbar_extension	lumbar_bending	lumbar_rotation
      2.04500000	      9.56503223	     -6.24968403	      7.14903484	      0.23204484	      0.95101284	      0.01967758	     -4.36039157	     10.42108987	    -10.31517834	    -10.50473616	     17.46027702	    -13.32394001	     14.13500804	      8.25880416	     -9.48677981	     -0.93123804	    -62.30968298	     10.58893465	    -14.21993990	    105.11539424	    -16.64846157	      8.17170256	      0.84710851
      2.05000000	      9.77570153	     -5.92504206	      7.10352213	      0.23766543	      0.95216485	      0.01981463	     -5.24777849	     10.18800064	    -10.15786423	    -10.04473487	     17.51534193	    -13.29190924	     14.12778984	      8.33264211	     -9.11372157	     -1.21155528	    -61.53993051	     11.03008552	    -13.99402775	    105.02010750	    -16.90475077	      7.80968519	      0.77986379
      2.05500000	      9.98624381	     -5.58847534	      7.05270708	      0.24329133	      0.95328383	      0.01994866	     -6.13233066	      9.93796762	    -10.01151456	     -9.59205134	     17.57192627	    -13.25187205	     14.13021894	      8.38059804	     -8.72556972	     -1.49740616	    -60.69686122	     11.45593565	    -13.77756713	    104.92820480	    -17.16009569	      7.43269505	      0.71331222
      2.06000000	     10.17646418	     -5.24068563	      7.00005728	      0.24889217	      0.95432394	      0.02006945	     -6.98368576	      9.66904305	     -9.87103762	     -9.15990907	     17.65659607	    -13.22384109	     14.14075188	      8.43574275	     -8.31572122	     -1.77090283	    -59.79687853	     11.84678600	    -13.55381767	    104.84630713	    -17.39649265	      7.04191561	      0.64832844
      2.06500000	     10.40931656	     -4.88986077	      6.93013358	      0.25452650	      0.95539000	      0.02019927	     -7.88139176	      9.39432372	     -9.76871003	     -8.73043253	     17.69510858	    -13.14728015	     14.15583665	      8.40351706	     -7.91707236	     -2.09146701	    -58.80724019	     12.25376072	    -13.40346750	    104.74657136	    -17.67963639	      6.64728353	      0.57692045
      2.07000000	     10.62283208	     -4.52365172	      6.86250848	      0.26014026	      0.95638511	      0.02031424	     -8.75070426	      9.09765555	     -9.67549809	     -8.31410553	     17.77743351	    -13.06678299	     14.17897110	      8.37469751	     -7.48888097	     -2.38893830	    -57.75412857	     12.60803100	    -13.26594151	    104.64120454	    -17.94330685	      6.23324726	      0.51055782
      2.07500000	     10.80685407	     -4.15056940	      6.78488249	      0.26573550	      0.95729337	      0.02044310	     -9.57701591	      8.78667542	     -9.56273204	     -7.91672127	     17.89787564	    -12.99397277	     14.20117454	      8.35983362	     -7.04785667	     -2.68475473	    -56.64112096	     12.89910611	    -13.13434720	    104.54566362	    -18.17712597	      5.80480794	      0.44503954
      2.08000000	     11.02647525	     -3.77078797	      6.70066607	      0.27135633	      0.95820546	      0.02054840	    -10.43959067	      8.46505445	     -9.51222075	     -7.52584921	     17.98465697	    -12.87288536	     14.22213335	      8.26792072	     -6.60576853	     -3.00777464	    -55.43940402	     13.20207415	    -13.08714746	    104.42860020	    -18.44858678	      5.37235595	      0.37830579
      2.08500000	     11.22785518	     -3.38865301	      6.60990814	      0.27695517	      0.95903303	      0.02065844	    -11.26753528	      8.13417001	     -9.47235860	     -7.15967085	     18.10462705	    -12.73561159	     14.24367923	      8.17712498	     -6.15614286	     -3.32811538	    -54.17709171	     13.45683495	    -13.07615340	    104.30594381	    -18.70195488	      4.93247445	      0.31342658
      2.09000000	     11.43081356	     -3.00091013	      6.51233008	      0.28254957	      0.95981262	      0.02076638	    -12.08520425	      7.79202349	     -9.46623493	     -6.81432790	     18.23257761	    -12.57148779	     14.26080973	      8.05583321	     -5.69890152	     -3.65467502	    -52.83927312	     13.68374344	    -13.11934431	    104.17163491	    -18.95958788	      4.48315441	      0.25181908
      2.09500000	     11.63099152	     -2.60474359	      6.40623719	      0.28815393	      0.96055088	      0.02084509	    -12.89158240	      7.43334784	     -9.49329386	     -6.48585668	     18.37785869	    -12.38116245	     14.27139194	      7.90314248	     -5.22909290	     -3.99673405	    -51.41694739	     13.86474088	    -13.22145852	    104.02631329	    -19.21176395	      4.02582276	      0.19800518
      2.10000000	     11.81891456	     -2.21248615	      6.29428072	      0.29373698	      0.96119540	      0.02093383	    -13.67189916	      7.07359053	     -9.50195668	     -6.17694246	     18.54803775	    -12.18971490	     14.27520972	      7.74593361	     -4.76342896	     -4.34336673	    -49.93690890	     13.99068201	    -13.34679832	    103.88973099	    -19.45410575	      3.56698939	      0.12565341
      2.10500000	     12.01719715	     -1.81452315	      6.17726588	      0.29934155	      0.96181183	      0.02099766	    -14.45694230	      6.70294614	     -9.56888253	     -5.88161315	     18.72277864	    -11.95280703	     14.27130220	      7.53818895	     -4.28855306	     -4.69802308	    -48.36520583	     14.08837968	    -13.53476657	    103.74573870	    -19.70500700	      3.10275827	      0.07420634
      2.11000000	     12.20644278	     -1.42136578	      6.04997905	      0.30493781	      0.96234613	      0.02106025	    -15.21818716	      6.33021981	     -9.63816030	     -5.60854429	     18.91767262	    -11.70400830	     14.26073478	      7.31529099	     -3.81661950	     -5.06375644	    -46.72703088	     14.13873690	    -13.75438656	    103.60836769	    -19.94579584	      2.63916857	      0.02105360
